<svg width="1920" height="702" viewBox="0 0 1920 702" fill="none" xmlns="http://www.w3.org/2000/svg">
<path d="M0.131076 702H1920V364.728C1821.43 394.909 1687.2 431.151 1497.64 427.41C1340.73 424.309 1212.58 407.193 1000.47 307.698C803.906 215.486 668.226 63.8426 433.252 14.8254C249.864 -23.438 102.864 20.1173 0.130859 57.9505L0.131076 702Z" fill="#FBAD2980"/>
<path d="M1499.48 445.822C1343.48 443.3 1197.48 401.743 1000.41 322.312C834.75 255.569 602.64 86.1005 376.56 58.4027C211.85 38.2197 88.65 57.0118 0 87.0311V702H1920V397.431C1817.21 427.51 1671.21 448.593 1499.48 445.822Z" fill="#FB662055"/>
</svg>
